<svg width="961" height="820" viewBox="0 0 961 820" fill="none" xmlns="http://www.w3.org/2000/svg">
<path d="M-441.341 466.106L-0.500005 3L311 550.5L960.137 852.16L521.457 1337.09L-441.341 466.106Z" fill="#FAFAFA"/>
<path d="M416.021 635.018C544.163 635.018 648.042 575.043 648.042 501.06C648.042 427.078 544.163 367.103 416.021 367.103C287.879 367.103 184 427.078 184 501.06C184 575.043 287.879 635.018 416.021 635.018Z" fill="#F0F0F0"/>
<path d="M549.27 547.542C534.055 538.757 534.055 524.518 549.27 515.734C564.485 506.949 589.153 506.949 604.368 515.734C619.582 524.518 619.582 538.757 604.368 547.542C589.153 556.326 564.485 556.326 549.27 547.542Z" fill="#E0E0E0"/>
<path d="M239.817 548.763L199.796 525.66C197.54 524.36 197.54 522.243 199.796 520.943L432.585 386.542C433.85 385.901 435.248 385.567 436.667 385.567C438.085 385.567 439.483 385.901 440.748 386.542L480.779 409.645C483.034 410.945 483.034 413.062 480.779 414.362L247.99 548.763C246.723 549.404 245.323 549.738 243.903 549.738C242.483 549.738 241.083 549.404 239.817 548.763V548.763Z" fill="#E0E0E0"/>
<path d="M383.671 507.58L418.079 487.687C421.624 485.639 423.397 482.96 423.397 480.272C423.397 477.584 423.397 475.486 423.397 475.486L387.709 455.357C386.712 454.713 385.882 453.841 385.286 452.814C384.691 451.787 384.346 450.634 384.282 449.449V407.015L324.211 441.738V484.152C324.28 485.336 324.626 486.488 325.222 487.514C325.817 488.54 326.644 489.412 327.638 490.061L358.008 507.55C365.079 511.676 376.581 511.676 383.671 507.58Z" fill="#BA68C8"/>
<g opacity="0.6">
<path opacity="0.6" d="M383.671 507.58L418.079 487.687C421.624 485.639 423.397 482.96 423.397 480.272C423.397 477.584 423.397 475.486 423.397 475.486L387.709 455.357C386.712 454.713 385.882 453.841 385.286 452.814C384.691 451.787 384.346 450.634 384.282 449.449V407.015L324.211 441.738V484.152C324.28 485.336 324.626 486.488 325.222 487.514C325.817 488.54 326.644 489.412 327.638 490.061L358.008 507.55C365.079 511.676 376.581 511.676 383.671 507.58Z" fill="black"/>
</g>
<path opacity="0.3" d="M338.618 491.666V496.432L327.609 490.08C326.615 489.433 325.788 488.561 325.194 487.534C324.601 486.508 324.257 485.356 324.191 484.172V441.738L335.634 435.13C335.871 438.035 336.127 441.039 336.373 443.993L328.327 448.622V481.759C328.391 482.945 328.735 484.098 329.331 485.125C329.926 486.152 330.757 487.024 331.754 487.668L338.618 491.666Z" fill="black"/>
<path d="M328.327 481.769C328.395 482.953 328.74 484.105 329.336 485.132C329.931 486.158 330.76 487.03 331.754 487.677L357.969 502.784C365.059 506.87 376.561 506.88 383.661 502.784L418.128 482.891C425.228 478.795 425.228 472.157 418.128 468.061L391.894 452.954C390.902 452.306 390.076 451.433 389.482 450.407C388.888 449.381 388.544 448.229 388.477 447.046V413.898L328.406 448.621L328.327 481.769Z" fill="#BA68C8"/>
<path opacity="0.3" d="M328.327 481.769C328.395 482.953 328.74 484.105 329.336 485.132C329.931 486.158 330.76 487.03 331.754 487.677L357.969 502.784C365.059 506.87 376.561 506.88 383.661 502.784L418.128 482.891C425.228 478.795 425.228 472.157 418.128 468.061L391.894 452.954C390.902 452.306 390.076 451.433 389.482 450.407C388.888 449.381 388.544 448.229 388.477 447.046V413.898L328.406 448.621L328.327 481.769Z" fill="black"/>
<path opacity="0.5" d="M398.837 457.002L391.855 452.974C390.862 452.325 390.036 451.453 389.443 450.427C388.849 449.4 388.505 448.249 388.438 447.065V413.898L328.367 448.621V481.769C328.434 482.953 328.78 484.105 329.375 485.132C329.97 486.158 330.799 487.03 331.794 487.677L338.687 491.616L398.837 457.002Z" fill="black"/>
<path d="M423.407 475.496V480.282C423.407 482.97 421.624 485.639 418.089 487.697L383.622 507.58C379.85 509.593 375.637 510.639 371.362 510.623V505.856C375.637 505.873 379.85 504.827 383.622 502.814L418.089 482.911C421.624 480.873 423.407 478.185 423.407 475.496Z" fill="#BA68C8"/>
<path opacity="0.5" d="M423.407 475.496V480.282C423.407 482.97 421.624 485.639 418.089 487.697L383.622 507.58C379.85 509.593 375.637 510.639 371.362 510.623V505.856C375.637 505.873 379.85 504.827 383.622 502.814L418.089 482.911C421.624 480.873 423.407 478.185 423.407 475.496Z" fill="black"/>
<path d="M231.82 522.962C233.119 523.589 234.547 523.902 235.989 523.877C237.431 523.851 238.846 523.487 240.122 522.814L472.527 388.639C473.773 387.827 474.81 386.732 475.554 385.443C476.299 384.155 476.729 382.71 476.811 381.224V193.212C476.766 191.767 476.381 190.353 475.686 189.085C474.991 187.817 474.007 186.731 472.812 185.915C471.515 185.287 470.088 184.974 468.648 185.002C467.207 185.029 465.793 185.396 464.521 186.073L232.116 320.287C230.874 321.105 229.843 322.204 229.107 323.497C228.371 324.789 227.951 326.236 227.881 327.722V515.704C227.925 517.137 228.304 518.54 228.988 519.801C229.672 521.061 230.642 522.144 231.82 522.962Z" fill="#BA68C8"/>
<path d="M240.151 522.804L472.556 388.63C473.804 387.819 474.843 386.724 475.587 385.435C476.332 384.147 476.761 382.701 476.84 381.214V193.212C476.84 190.485 474.92 189.372 472.556 190.741L240.151 324.915C238.905 325.727 237.867 326.822 237.123 328.111C236.378 329.399 235.948 330.845 235.868 332.331V520.332C235.868 523.06 237.788 524.173 240.151 522.804Z" fill="#BA68C8"/>
<path opacity="0.5" d="M240.151 522.804L472.556 388.63C473.804 387.819 474.843 386.724 475.587 385.435C476.332 384.147 476.761 382.701 476.84 381.214V193.212C476.84 190.485 474.92 189.372 472.556 190.741L240.151 324.915C238.905 325.727 237.867 326.822 237.123 328.111C236.378 329.399 235.948 330.845 235.868 332.331V520.332C235.868 523.06 237.788 524.173 240.151 522.804Z" fill="black"/>
<path d="M239.521 527.688C238.302 528.22 236.983 528.482 235.653 528.455C234.324 528.427 233.016 528.112 231.82 527.531C230.64 526.711 229.668 525.625 228.984 524.361C228.3 523.097 227.922 521.69 227.881 520.253V503.138L235.907 507.786V524.902C235.858 527.393 237.443 528.525 239.521 527.688Z" fill="#BA68C8"/>
<path opacity="0.5" d="M239.521 527.688C238.302 528.22 236.983 528.482 235.653 528.455C234.324 528.427 233.016 528.112 231.82 527.531C230.64 526.711 229.668 525.625 228.984 524.361C228.3 523.097 227.922 521.69 227.881 520.253V503.138L235.907 507.786V524.902C235.858 527.393 237.443 528.525 239.521 527.688Z" fill="black"/>
<path d="M235.858 507.786V524.902C235.858 527.629 237.827 528.732 240.141 527.373L472.546 393.199C473.787 392.39 474.821 391.301 475.565 390.02C476.309 388.739 476.743 387.302 476.83 385.823V368.629L235.858 507.786Z" fill="#BA68C8"/>
<path opacity="0.3" d="M235.868 507.747V524.902C235.868 527.629 237.837 528.732 240.151 527.373L472.556 393.199C473.796 392.389 474.828 391.3 475.57 390.019C476.312 388.738 476.744 387.301 476.83 385.823V368.629L235.868 507.747Z" fill="black"/>
<path d="M243.893 486.269V334.999C243.939 334.108 244.195 333.24 244.64 332.466C245.085 331.693 245.706 331.035 246.454 330.548L466.195 203.641C467.613 202.823 468.765 203.483 468.765 205.118V356.467C468.717 357.359 468.46 358.227 468.013 359C467.566 359.774 466.943 360.431 466.195 360.918L246.464 487.795C245.046 488.613 243.893 487.943 243.893 486.269Z" fill="#BA68C8"/>
<path d="M243.893 486.269V334.999C243.939 334.108 244.195 333.24 244.64 332.466C245.085 331.693 245.706 331.035 246.454 330.548L466.195 203.641C467.613 202.823 468.765 203.483 468.765 205.118V356.467C468.717 357.359 468.46 358.227 468.013 359C467.566 359.774 466.943 360.431 466.195 360.918L246.464 487.795C245.046 488.613 243.893 487.943 243.893 486.269Z" fill="#263238"/>
<path d="M356.344 443.658C355.174 444.419 354.201 445.445 353.503 446.653C352.804 447.861 352.401 449.217 352.326 450.61C352.326 453.171 354.128 454.215 356.344 452.935C357.515 452.173 358.489 451.145 359.188 449.935C359.886 448.725 360.288 447.367 360.362 445.972C360.362 443.412 358.56 442.378 356.344 443.658Z" fill="#BA68C8"/>
<path opacity="0.7" d="M237.128 328.096C236.365 329.379 235.929 330.83 235.858 332.321V507.787L227.881 503.138V327.722C227.933 326.226 228.367 324.768 229.142 323.487L237.128 328.096Z" fill="black"/>
<path opacity="0.3" d="M476.791 192.504C476.486 190.298 474.703 189.549 472.547 190.741L240.141 324.915C238.881 325.703 237.841 326.798 237.118 328.096L229.083 323.458C229.81 322.16 230.854 321.066 232.116 320.277L464.521 186.112C465.795 185.436 467.21 185.069 468.653 185.041C470.095 185.014 471.524 185.327 472.822 185.955C473.914 186.699 474.833 187.668 475.518 188.798C476.203 189.928 476.637 191.192 476.791 192.504Z" fill="black"/>
<path d="M489.328 215.645C488.983 215.472 488.597 215.396 488.212 215.426C487.827 215.455 487.457 215.589 487.142 215.813L267.854 342.493C266.989 343.066 266.271 343.834 265.757 344.735C265.244 345.637 264.95 346.647 264.9 347.683V498.027C264.869 498.535 264.97 499.042 265.193 499.499C265.415 499.956 265.752 500.348 266.17 500.637C266.653 500.903 269.233 502.4 270.001 502.813C270.273 502.952 270.576 503.016 270.881 502.998C271.185 502.981 271.48 502.883 271.734 502.715L490.973 376.034C491.838 375.462 492.557 374.694 493.07 373.792C493.583 372.891 493.877 371.881 493.927 370.845V219.722C493.971 219.34 493.908 218.954 493.744 218.606C493.581 218.258 493.324 217.963 493.002 217.753C492.509 217.428 489.88 215.97 489.328 215.645Z" fill="#BA68C8"/>
<path d="M271.684 344.621L490.981 217.99C492.636 217.005 493.936 217.812 493.936 219.723V370.845C493.885 371.882 493.591 372.891 493.078 373.793C492.565 374.695 491.847 375.463 490.981 376.035L271.684 502.716C270.029 503.7 268.729 502.115 268.729 500.204V349.811C268.781 348.775 269.076 347.766 269.589 346.864C270.102 345.963 270.819 345.195 271.684 344.621V344.621Z" fill="#FAFAFA"/>
<path d="M492.321 218.561C492.902 218.561 492.99 219.29 492.99 219.723V370.845C492.937 371.713 492.683 372.556 492.247 373.309C491.811 374.061 491.206 374.701 490.479 375.178L271.211 501.859C271.064 501.954 270.894 502.009 270.718 502.016C270.167 502.016 269.734 501.169 269.734 500.204V349.811C269.781 348.943 270.028 348.098 270.455 347.342C270.882 346.585 271.478 345.937 272.196 345.448L491.474 218.837C491.727 218.673 492.019 218.578 492.321 218.561V218.561ZM492.321 217.576C491.846 217.596 491.385 217.739 490.981 217.99L271.684 344.621C270.819 345.195 270.102 345.963 269.589 346.864C269.076 347.766 268.781 348.775 268.729 349.811V500.204C268.729 501.721 269.576 503.001 270.699 503.001C271.046 502.995 271.386 502.896 271.684 502.716L490.972 376.035C491.837 375.463 492.555 374.695 493.068 373.793C493.582 372.891 493.875 371.882 493.926 370.845V219.723C493.926 218.364 493.256 217.576 492.271 217.576H492.321Z" fill="#E0E0E0"/>
<path d="M266.11 500.637C266.435 500.805 268.769 502.134 269.793 502.725C269.425 502.42 269.134 502.033 268.942 501.595C268.751 501.158 268.664 500.681 268.69 500.204V359.629L264.849 357.383V498.028C264.818 498.534 264.917 499.041 265.138 499.498C265.358 499.955 265.693 500.347 266.11 500.637V500.637Z" fill="#F0F0F0"/>
<path d="M493.975 219.693C493.975 217.802 492.626 217.034 491.021 217.99L271.684 344.621C270.819 345.194 270.102 345.963 269.589 346.864C269.076 347.765 268.781 348.775 268.729 349.81V359.658L493.975 229.541V219.693Z" fill="#BA68C8"/>
<g opacity="0.4">
<path opacity="0.4" d="M490.981 217.989L271.684 344.611C270.803 345.166 270.078 345.935 269.576 346.846L265.765 344.631C266.266 343.751 266.985 343.015 267.853 342.494L487.141 215.813C487.455 215.588 487.824 215.452 488.209 215.421C488.594 215.39 488.981 215.464 489.327 215.636C489.859 215.971 492.35 217.379 492.99 217.724C492.659 217.601 492.303 217.561 491.953 217.607C491.603 217.654 491.269 217.785 490.981 217.989V217.989Z" fill="white"/>
</g>
<path opacity="0.15" d="M264.849 357.393V347.634C264.89 346.571 265.205 345.536 265.765 344.631L269.586 346.837C269.034 347.726 268.725 348.745 268.69 349.791V359.639L264.849 357.393Z" fill="black"/>
<path d="M447.73 333.059L316.392 408.886C315.753 409.301 315.221 409.86 314.84 410.519C314.458 411.178 314.238 411.917 314.196 412.678V450.335C314.238 451.095 314.458 451.835 314.84 452.494C315.221 453.153 315.753 453.712 316.392 454.126L320.223 456.332C320.904 456.677 321.656 456.856 322.419 456.856C323.182 456.856 323.934 456.677 324.615 456.332L455.933 380.505C456.572 380.089 457.104 379.527 457.486 378.867C457.867 378.207 458.088 377.466 458.13 376.704V339.037C458.088 338.276 457.867 337.537 457.486 336.878C457.104 336.219 456.572 335.66 455.933 335.245L452.093 333.039C451.415 332.701 450.667 332.526 449.909 332.529C449.152 332.533 448.405 332.714 447.73 333.059Z" fill="#BA68C8"/>
<path opacity="0.5" d="M458.13 338.702C457.972 337.57 457.056 337.156 455.953 337.796L324.615 413.623C323.967 414.026 323.435 414.589 323.069 415.258L314.846 410.511C315.215 409.853 315.743 409.297 316.382 408.896L447.73 333.069C448.409 332.724 449.16 332.544 449.922 332.544C450.683 332.544 451.434 332.724 452.113 333.069L455.953 335.275C456.539 335.659 457.036 336.163 457.411 336.754C457.786 337.345 458.031 338.009 458.13 338.702Z" fill="white"/>
<path d="M324.241 456.52C323.597 456.773 322.908 456.889 322.218 456.858C321.527 456.828 320.851 456.652 320.233 456.343L316.392 454.137C315.754 453.721 315.223 453.162 314.842 452.503C314.46 451.844 314.239 451.105 314.196 450.346V412.688C314.226 411.919 314.449 411.171 314.846 410.512L323.069 415.258C322.669 415.909 322.445 416.652 322.419 417.415V455.082C322.419 456.333 323.207 456.914 324.241 456.52Z" fill="#263238"/>
<path d="M324.615 413.623L455.953 337.796C457.164 337.097 458.149 337.658 458.149 339.057V376.724C458.108 377.486 457.887 378.227 457.505 378.887C457.124 379.547 456.592 380.109 455.953 380.525L324.635 456.352C323.423 457.052 322.438 456.48 322.438 455.082V417.424C322.478 416.665 322.696 415.925 323.074 415.265C323.452 414.604 323.98 414.042 324.615 413.623V413.623Z" fill="#BA68C8"/>
<path d="M412.909 353.168L316.402 408.896C315.762 409.297 315.234 409.853 314.866 410.511L323.088 415.258C323.454 414.589 323.987 414.026 324.634 413.623L421.142 357.905L412.909 353.168Z" fill="#455A64"/>
<path d="M421.122 357.905L324.615 413.623C323.976 414.04 323.444 414.601 323.063 415.262C322.681 415.922 322.461 416.663 322.419 417.425V455.072C322.419 456.471 323.404 457.042 324.615 456.343L421.122 400.624V357.905Z" fill="#37474F"/>
<path d="M346.871 409.034L396.67 380.289C398.728 379.097 400.402 379.944 400.402 382.18C400.31 383.435 399.924 384.651 399.273 385.729C398.623 386.807 397.728 387.717 396.66 388.384L346.871 417.139C344.812 418.33 343.128 417.484 343.128 415.248C343.221 413.992 343.608 412.774 344.258 411.695C344.908 410.616 345.803 409.704 346.871 409.034V409.034Z" fill="#BA68C8"/>
<path d="M357.073 418.557C357.082 418.547 357.093 418.538 357.106 418.533C357.119 418.527 357.132 418.524 357.146 418.524C357.16 418.524 357.174 418.527 357.187 418.533C357.2 418.538 357.211 418.547 357.22 418.557C357.264 418.624 357.285 418.704 357.279 418.784V424.387C357.28 424.928 357.234 425.469 357.142 426.002C357.06 426.489 356.921 426.965 356.728 427.42C356.551 427.837 356.32 428.228 356.039 428.582C355.762 428.911 355.428 429.188 355.054 429.4C354.761 429.591 354.419 429.693 354.069 429.695C353.935 429.684 353.805 429.647 353.687 429.584C353.568 429.521 353.464 429.435 353.38 429.331C353.164 429.041 353.022 428.703 352.966 428.346C352.872 427.869 352.829 427.384 352.838 426.898V421.285C352.838 421.187 352.858 421.09 352.897 420.999C352.921 420.918 352.974 420.848 353.045 420.803L353.665 420.438C353.685 420.419 353.712 420.409 353.739 420.409C353.767 420.409 353.793 420.419 353.813 420.438C353.859 420.504 353.879 420.585 353.872 420.665V426.199C353.865 426.504 353.894 426.808 353.961 427.105C353.988 427.295 354.07 427.473 354.197 427.617C354.241 427.67 354.297 427.712 354.361 427.739C354.424 427.766 354.493 427.779 354.561 427.775C354.73 427.764 354.893 427.709 355.034 427.617C355.209 427.512 355.369 427.383 355.507 427.233C355.661 427.056 355.787 426.857 355.881 426.642C355.992 426.39 356.075 426.125 356.127 425.854C356.185 425.529 356.211 425.2 356.206 424.87V419.325C356.209 419.226 356.233 419.129 356.275 419.04C356.299 418.959 356.351 418.889 356.423 418.843L357.073 418.557Z" fill="#FAFAFA"/>
<path d="M360.933 423.855C360.938 423.783 360.921 423.71 360.884 423.648C360.86 423.622 360.831 423.603 360.799 423.591C360.766 423.579 360.731 423.575 360.697 423.579C360.576 423.563 360.453 423.563 360.332 423.579L359.761 423.688C359.577 423.733 359.384 423.733 359.2 423.688C359.055 423.641 358.93 423.547 358.845 423.422C358.749 423.262 358.685 423.084 358.658 422.9C358.562 422.372 358.562 421.832 358.658 421.304C358.732 421.002 358.838 420.708 358.973 420.428C359.108 420.148 359.273 419.884 359.466 419.64C359.652 419.408 359.879 419.211 360.135 419.059C360.342 418.933 360.574 418.852 360.815 418.823C360.99 418.805 361.165 418.843 361.317 418.931C361.462 419.019 361.575 419.15 361.642 419.305C361.721 419.489 361.765 419.686 361.77 419.886C361.78 419.985 361.76 420.085 361.711 420.172C361.687 420.253 361.634 420.323 361.563 420.369L360.972 420.714C360.945 420.729 360.915 420.737 360.884 420.737C360.853 420.737 360.822 420.729 360.795 420.714L360.667 420.615C360.616 420.575 360.555 420.551 360.49 420.546C360.363 420.56 360.242 420.604 360.135 420.674C359.981 420.767 359.844 420.887 359.732 421.029C359.612 421.184 359.55 421.375 359.554 421.57C359.54 421.645 359.54 421.722 359.554 421.797C359.573 421.825 359.598 421.848 359.627 421.865C359.656 421.882 359.688 421.892 359.722 421.895C359.829 421.913 359.939 421.913 360.047 421.895L360.598 421.797C361.061 421.708 361.376 421.797 361.583 422.053C361.8 422.418 361.9 422.841 361.869 423.264C361.866 423.557 361.826 423.848 361.75 424.131C361.673 424.438 361.56 424.735 361.416 425.017C361.271 425.309 361.089 425.58 360.874 425.824C360.67 426.064 360.427 426.267 360.155 426.425C359.939 426.564 359.692 426.648 359.436 426.671C359.251 426.678 359.068 426.626 358.914 426.524C358.762 426.42 358.645 426.272 358.579 426.1C358.5 425.913 358.46 425.712 358.461 425.509C358.452 425.407 358.473 425.305 358.52 425.214C358.544 425.133 358.597 425.063 358.668 425.017L359.259 424.672C359.338 424.672 359.397 424.623 359.436 424.672L359.564 424.81C359.59 424.84 359.622 424.863 359.658 424.88C359.693 424.897 359.732 424.907 359.771 424.909C359.91 424.909 360.045 424.864 360.155 424.781C360.333 424.68 360.493 424.55 360.628 424.397C360.695 424.316 360.751 424.226 360.795 424.131C360.865 424.053 360.912 423.957 360.933 423.855V423.855Z" fill="#FAFAFA"/>
<path d="M362.942 421.186C362.94 420.675 362.983 420.164 363.07 419.66C363.152 419.186 363.281 418.72 363.454 418.271C363.599 417.869 363.798 417.488 364.045 417.139C364.251 416.839 364.52 416.587 364.833 416.4C365.061 416.247 365.339 416.187 365.611 416.233C365.851 416.289 366.062 416.433 366.202 416.637C366.387 416.904 366.517 417.205 366.586 417.523C366.68 417.936 366.726 418.359 366.723 418.783V419.394C366.727 419.497 366.703 419.599 366.655 419.689C366.63 419.771 366.578 419.84 366.507 419.886L363.946 421.373C363.94 421.547 363.964 421.72 364.015 421.885C364.053 421.997 364.122 422.096 364.212 422.171C364.293 422.235 364.395 422.267 364.498 422.26C364.617 422.246 364.731 422.205 364.833 422.141C364.982 422.061 365.115 421.954 365.227 421.826C365.327 421.713 365.413 421.587 365.483 421.452C365.525 421.374 365.571 421.299 365.621 421.226C365.663 421.176 365.713 421.132 365.768 421.098L366.379 420.743C366.4 420.726 366.426 420.717 366.453 420.717C366.48 420.717 366.506 420.726 366.527 420.743C366.552 420.774 366.571 420.811 366.581 420.85C366.591 420.889 366.593 420.93 366.586 420.97C366.575 421.162 366.535 421.351 366.467 421.531C366.382 421.804 366.27 422.068 366.133 422.319C365.979 422.607 365.794 422.878 365.581 423.126C365.369 423.38 365.116 423.596 364.833 423.766C364.6 423.919 364.321 423.985 364.045 423.953C363.803 423.895 363.592 423.747 363.454 423.54C363.26 423.241 363.129 422.906 363.07 422.555C362.98 422.104 362.938 421.646 362.942 421.186V421.186ZM364.833 418.045C364.681 418.126 364.55 418.241 364.449 418.38C364.339 418.518 364.25 418.67 364.183 418.833C364.114 418.995 364.058 419.163 364.015 419.335C363.981 419.491 363.958 419.649 363.946 419.808L365.68 418.823C365.67 418.687 365.65 418.552 365.621 418.419C365.605 418.3 365.558 418.188 365.483 418.094C365.453 418.052 365.415 418.016 365.371 417.988C365.327 417.961 365.278 417.944 365.227 417.936C365.087 417.925 364.947 417.963 364.833 418.045V418.045Z" fill="#FAFAFA"/>
<path d="M369.816 415.297C369.517 415.468 369.282 415.73 369.146 416.046C368.993 416.461 368.922 416.903 368.939 417.346V420.901C368.941 421.002 368.92 421.103 368.88 421.196C368.856 421.277 368.804 421.347 368.732 421.393L368.151 421.728C368.142 421.738 368.131 421.747 368.118 421.752C368.105 421.758 368.091 421.761 368.077 421.761C368.064 421.761 368.05 421.758 368.037 421.752C368.024 421.747 368.013 421.738 368.004 421.728C367.96 421.661 367.939 421.581 367.945 421.501V415.13C367.945 415.028 367.965 414.928 368.004 414.834C368.031 414.755 368.083 414.686 368.151 414.637L368.732 414.303C368.752 414.284 368.779 414.274 368.806 414.274C368.834 414.274 368.86 414.284 368.88 414.303C368.926 414.365 368.947 414.442 368.939 414.519V414.834C369.057 414.57 369.202 414.319 369.372 414.086C369.528 413.87 369.73 413.692 369.963 413.564L370.318 413.357C370.336 413.339 370.361 413.329 370.387 413.329C370.413 413.329 370.437 413.339 370.456 413.357C370.503 413.423 370.528 413.503 370.525 413.584V414.48C370.523 414.582 370.499 414.683 370.456 414.775C370.431 414.853 370.383 414.922 370.318 414.972L369.816 415.297Z" fill="#FAFAFA"/>
<path d="M377.162 414.825C377.171 414.814 377.183 414.806 377.195 414.8C377.208 414.795 377.222 414.792 377.236 414.792C377.25 414.792 377.264 414.795 377.276 414.8C377.289 414.806 377.3 414.814 377.31 414.825C377.354 414.892 377.375 414.971 377.369 415.051V416.036C377.368 416.138 377.348 416.238 377.31 416.332C377.276 416.405 377.225 416.469 377.162 416.519L373.794 418.488C373.774 418.507 373.748 418.517 373.72 418.517C373.693 418.517 373.666 418.507 373.646 418.488C373.602 418.425 373.581 418.348 373.587 418.272V409.409C373.588 409.307 373.608 409.207 373.646 409.113C373.674 409.036 373.726 408.971 373.794 408.926L374.414 408.562C374.435 408.543 374.461 408.533 374.488 408.533C374.516 408.533 374.542 408.543 374.562 408.562C374.606 408.625 374.627 408.702 374.621 408.778V416.273L377.162 414.825Z" fill="#FAFAFA"/>
<path d="M380.185 407.538C380.407 407.384 380.675 407.311 380.944 407.331C381.174 407.349 381.389 407.455 381.544 407.626C381.728 407.837 381.862 408.086 381.938 408.355C382.043 408.704 382.103 409.064 382.115 409.428C382.115 409.507 382.115 409.615 382.115 409.743V410.502C382.115 410.62 382.115 410.728 382.115 410.817C382.096 411.245 382.037 411.67 381.938 412.087C381.847 412.493 381.715 412.889 381.544 413.269C381.388 413.622 381.186 413.953 380.944 414.254C380.736 414.526 380.479 414.756 380.185 414.933C379.957 415.081 379.689 415.154 379.417 415.14C379.19 415.12 378.978 415.015 378.826 414.845C378.637 414.641 378.502 414.394 378.432 414.126C378.327 413.777 378.268 413.416 378.255 413.052C378.255 412.973 378.255 412.875 378.255 412.747V411.989C378.255 411.861 378.255 411.752 378.255 411.674C378.267 411.242 378.323 410.813 378.423 410.393C378.518 409.984 378.654 409.585 378.826 409.202C378.983 408.851 379.181 408.52 379.417 408.217C379.626 407.942 379.887 407.711 380.185 407.538V407.538ZM381.111 410.078C381.111 409.86 381.074 409.644 381.003 409.438C380.966 409.313 380.89 409.202 380.786 409.123C380.702 409.067 380.601 409.042 380.5 409.054C380.388 409.075 380.281 409.119 380.185 409.182C380.07 409.246 379.963 409.325 379.87 409.418C379.757 409.536 379.661 409.668 379.585 409.812C379.486 409.992 379.413 410.184 379.368 410.384C379.303 410.635 379.264 410.892 379.25 411.152C379.25 411.23 379.25 411.319 379.25 411.427V412.127C379.25 412.235 379.25 412.324 379.25 412.383C379.259 412.6 379.299 412.816 379.368 413.023C379.404 413.149 379.48 413.259 379.585 413.338C379.626 413.367 379.672 413.387 379.721 413.397C379.77 413.407 379.821 413.407 379.87 413.397C379.982 413.378 380.089 413.338 380.185 413.279C380.299 413.213 380.405 413.134 380.5 413.042C380.61 412.922 380.706 412.79 380.786 412.649C380.881 412.467 380.953 412.276 381.003 412.077C381.067 411.826 381.103 411.568 381.111 411.309C381.117 411.217 381.117 411.125 381.111 411.033V410.344C381.117 410.256 381.117 410.167 381.111 410.078Z" fill="#FAFAFA"/>
<path d="M385.129 413.299C385.255 413.222 385.368 413.125 385.464 413.013C385.582 412.874 385.685 412.722 385.769 412.56C385.867 412.362 385.943 412.154 385.995 411.94C386.056 411.698 386.086 411.45 386.084 411.201V410.699C386.084 410.797 385.986 410.915 385.917 411.053C385.849 411.197 385.77 411.336 385.68 411.467C385.577 411.605 385.466 411.737 385.345 411.861C385.222 411.99 385.079 412.1 384.922 412.186C384.821 412.255 384.707 412.303 384.587 412.326C384.466 412.35 384.343 412.349 384.223 412.324C384.004 412.255 383.816 412.112 383.691 411.92C383.531 411.665 383.414 411.386 383.346 411.093C383.262 410.721 383.216 410.341 383.208 409.96C383.208 409.832 383.208 409.675 383.208 409.487C383.208 409.3 383.208 409.143 383.208 409.005C383.221 408.572 383.267 408.141 383.346 407.715C383.427 407.296 383.543 406.884 383.691 406.484C383.83 406.137 384.009 405.806 384.223 405.499C384.404 405.228 384.643 404.999 384.922 404.83C385.053 404.751 385.196 404.694 385.345 404.662C385.456 404.642 385.57 404.642 385.68 404.662C385.768 404.687 385.848 404.73 385.917 404.79C385.98 404.838 386.036 404.895 386.084 404.958V404.642C386.085 404.541 386.105 404.441 386.143 404.347C386.171 404.27 386.223 404.204 386.291 404.16L386.872 403.815C386.892 403.797 386.918 403.786 386.946 403.786C386.973 403.786 387 403.797 387.02 403.815C387.067 403.881 387.091 403.961 387.088 404.042V410.443C387.115 411.401 386.937 412.355 386.567 413.239C386.276 413.935 385.773 414.521 385.129 414.914C384.909 415.05 384.658 415.128 384.4 415.14C384.196 415.152 383.993 415.101 383.819 414.992C383.653 414.868 383.518 414.706 383.425 414.52C383.329 414.295 383.276 414.055 383.268 413.811C383.258 413.709 383.279 413.606 383.327 413.515C383.351 413.434 383.403 413.364 383.474 413.318L383.996 413.023C384.008 413.01 384.023 413 384.039 412.993C384.055 412.986 384.072 412.982 384.09 412.982C384.107 412.982 384.125 412.986 384.141 412.993C384.157 413 384.171 413.01 384.183 413.023C384.232 413.074 384.275 413.13 384.311 413.19C384.371 413.296 384.47 413.374 384.587 413.407C384.705 413.495 384.883 413.397 385.129 413.299ZM384.203 408.522C384.203 408.785 384.203 409.041 384.203 409.291C384.175 409.684 384.287 410.074 384.518 410.393C384.606 410.469 384.718 410.511 384.833 410.511C384.949 410.511 385.061 410.469 385.148 410.393C385.434 410.208 385.657 409.94 385.789 409.625C385.968 409.214 386.068 408.773 386.084 408.325C386.084 408.178 386.084 408 386.084 407.794C386.084 407.587 386.084 407.41 386.084 407.282C386.104 406.929 385.999 406.58 385.789 406.297C385.701 406.217 385.587 406.172 385.469 406.172C385.35 406.172 385.236 406.217 385.148 406.297C384.868 406.482 384.649 406.746 384.518 407.055C384.316 407.518 384.209 408.017 384.203 408.522V408.522Z" fill="#FAFAFA"/>
<path d="M389.383 399.778C389.402 399.762 389.427 399.753 389.452 399.753C389.477 399.753 389.501 399.762 389.521 399.778C389.572 399.841 389.597 399.923 389.59 400.004V401.078C389.59 401.18 389.567 401.281 389.521 401.373C389.493 401.447 389.445 401.512 389.383 401.56L388.723 401.944C388.714 401.955 388.703 401.963 388.69 401.969C388.677 401.975 388.663 401.978 388.649 401.978C388.635 401.978 388.621 401.975 388.609 401.969C388.596 401.963 388.585 401.955 388.575 401.944C388.55 401.915 388.53 401.88 388.518 401.843C388.507 401.806 388.503 401.766 388.506 401.728V400.654C388.506 400.552 388.529 400.45 388.575 400.359C388.603 400.282 388.655 400.216 388.723 400.172L389.383 399.778ZM389.55 409.025C389.551 409.123 389.531 409.22 389.491 409.31C389.46 409.388 389.409 409.455 389.344 409.507L388.753 409.842C388.744 409.852 388.734 409.861 388.722 409.866C388.71 409.872 388.697 409.875 388.684 409.875C388.671 409.875 388.657 409.872 388.646 409.866C388.634 409.861 388.623 409.852 388.615 409.842C388.563 409.778 388.539 409.697 388.546 409.616V403.244C388.545 403.142 388.569 403.04 388.615 402.949C388.643 402.872 388.69 402.804 388.753 402.752L389.344 402.417C389.364 402.398 389.39 402.388 389.417 402.388C389.445 402.388 389.471 402.398 389.491 402.417C389.535 402.48 389.556 402.557 389.55 402.634V409.025Z" fill="#FAFAFA"/>
<path d="M394.73 406.021C394.73 406.122 394.71 406.223 394.671 406.316C394.644 406.393 394.592 406.459 394.523 406.504L393.933 406.848C393.914 406.866 393.889 406.876 393.864 406.876C393.838 406.876 393.813 406.866 393.795 406.848C393.743 406.785 393.718 406.703 393.726 406.622V403.155C393.756 402.746 393.682 402.336 393.509 401.964C393.371 401.718 393.155 401.678 392.849 401.855C392.545 402.06 392.319 402.362 392.209 402.712C392.045 403.177 391.965 403.667 391.973 404.16V407.636C391.972 407.737 391.952 407.838 391.914 407.931C391.89 408.013 391.837 408.083 391.766 408.128L391.185 408.463C391.176 408.474 391.165 408.482 391.152 408.488C391.139 408.494 391.125 408.497 391.111 408.497C391.097 408.497 391.083 408.494 391.071 408.488C391.058 408.482 391.047 408.474 391.037 408.463C390.992 408.401 390.971 408.324 390.978 408.247V401.875C390.977 401.774 390.997 401.673 391.037 401.58C391.062 401.499 391.114 401.429 391.185 401.383L391.766 401.048C391.775 401.037 391.787 401.029 391.799 401.023C391.812 401.018 391.826 401.015 391.84 401.015C391.854 401.015 391.868 401.018 391.881 401.023C391.893 401.029 391.905 401.037 391.914 401.048C391.958 401.115 391.979 401.195 391.973 401.274V401.58C392.103 401.28 392.261 400.993 392.446 400.723C392.608 400.474 392.827 400.268 393.086 400.122C393.31 399.959 393.589 399.888 393.864 399.925C393.973 399.953 394.075 400.003 394.163 400.072C394.251 400.142 394.324 400.229 394.376 400.329C394.519 400.596 394.612 400.886 394.652 401.186C394.704 401.578 394.73 401.972 394.73 402.368V406.021Z" fill="#FAFAFA"/>
<path d="M444.402 377.355L434.84 382.869L436.327 369.457C435.175 368.846 434.446 367.359 434.446 365.222C434.446 361.411 436.77 356.99 439.626 355.375C442.481 353.76 444.796 355.473 444.796 359.314C444.737 361.573 444.092 363.779 442.925 365.715L444.402 377.355Z" fill="#455A64"/>
<path d="M444.412 377.354L435.992 372.5L434.84 382.879L444.412 377.354Z" fill="#37474F"/>
<path d="M439.606 355.345C437.524 356.752 435.971 358.814 435.194 361.204L442.905 365.655C444.072 363.719 444.717 361.514 444.776 359.254C444.796 355.443 442.482 353.7 439.606 355.345Z" fill="#37474F"/>
<path d="M393.125 310.686C389.846 308.795 385.326 309.061 380.323 311.946C370.338 317.717 362.243 331.73 362.243 343.262C362.243 349.052 364.291 353.11 367.58 354.981L373.952 358.683C377.221 360.574 381.741 360.298 386.754 357.413C396.739 351.652 404.834 337.629 404.834 326.097C404.834 320.336 402.805 316.25 399.536 314.408" fill="#BA68C8"/>
<path d="M386.744 315.659C376.758 321.429 368.663 335.453 368.663 346.974C368.663 358.496 376.758 363.184 386.744 357.413C396.729 351.642 404.834 337.629 404.824 326.097C404.814 314.566 396.719 309.898 386.744 315.659Z" fill="#BA68C8"/>
<path d="M396.719 341.243V342.563C394.327 346.833 390.896 350.43 386.744 353.021C382.854 355.256 379.338 355.502 376.758 354.075V351.357C376.89 348.529 377.698 345.774 379.113 343.322C380.528 340.87 382.51 338.793 384.892 337.265L387.522 335.748C389.846 334.409 392.111 334.232 393.883 335.266C395.656 336.3 396.719 338.476 396.719 341.243Z" fill="#BA68C8"/>
<path opacity="0.4" d="M393.125 310.686L399.526 314.408C396.257 312.508 391.737 312.773 386.724 315.659C380.185 319.44 374.454 326.757 371.283 334.596L364.872 330.883C368.053 323.005 373.735 315.728 380.313 311.946C385.336 309.071 389.856 308.795 393.125 310.686Z" fill="white"/>
<path opacity="0.2" d="M373.725 358.535L367.59 354.98C364.301 353.109 362.253 349.072 362.253 343.262L368.664 346.984C368.703 352.597 370.594 356.595 373.725 358.535Z" fill="black"/>
<path opacity="0.1" d="M364.892 330.883L371.303 334.596C369.66 338.52 368.778 342.721 368.703 346.974V346.974L362.292 343.252C362.371 339.002 363.253 334.805 364.892 330.883Z" fill="black"/>
<path d="M384.459 335.128C383.848 335.134 383.246 334.978 382.716 334.675C382.077 334.249 381.564 333.658 381.233 332.964C380.902 332.271 380.765 331.501 380.835 330.736C380.919 328.942 381.431 327.194 382.329 325.638C383.226 324.082 384.484 322.764 385.995 321.794V321.794C386.603 321.309 387.342 321.019 388.117 320.961C388.892 320.904 389.666 321.081 390.338 321.47C391.011 321.86 391.55 322.443 391.885 323.144C392.221 323.845 392.337 324.63 392.219 325.398C392.134 327.192 391.621 328.94 390.723 330.495C389.826 332.05 388.569 333.369 387.059 334.34C386.277 334.828 385.38 335.1 384.459 335.128V335.128Z" fill="white"/>
<path d="M393.883 335.256C392.111 334.222 389.846 334.399 387.522 335.738L384.892 337.255C382.508 338.784 380.526 340.863 379.111 343.317C377.695 345.77 376.889 348.527 376.758 351.357V354.084C379.338 355.512 382.854 355.266 386.744 353.031C390.896 350.44 394.327 346.843 396.719 342.573V341.253C396.719 338.476 395.695 336.3 393.883 335.256Z" fill="white"/>
<path d="M596.332 505.62C596.332 505.62 597.642 494.118 603.363 485.186C609.085 476.254 616.943 470.69 624.28 470.109C631.616 469.528 637.544 476.284 629.696 480.942C621.847 485.6 607.903 490.307 601.482 507.639L596.332 505.62Z" fill="#BA68C8"/>
<path opacity="0.1" d="M596.332 505.62C596.332 505.62 597.642 494.118 603.363 485.186C609.085 476.254 616.943 470.69 624.28 470.109C631.616 469.528 637.544 476.284 629.696 480.942C621.847 485.6 607.903 490.307 601.482 507.639L596.332 505.62Z" fill="black"/>
<path d="M598.489 502.626H598.41C598.313 502.587 598.236 502.511 598.196 502.415C598.155 502.319 598.154 502.211 598.193 502.114C605.933 483.059 620.666 475.092 627.382 473.556C627.432 473.544 627.484 473.543 627.535 473.551C627.586 473.56 627.635 473.578 627.679 473.606C627.723 473.633 627.761 473.669 627.791 473.711C627.821 473.753 627.843 473.801 627.854 473.851C627.866 473.902 627.868 473.954 627.859 474.005C627.85 474.056 627.832 474.105 627.804 474.149C627.777 474.193 627.741 474.231 627.699 474.261C627.657 474.291 627.609 474.312 627.559 474.324C620.981 475.841 606.534 483.66 598.922 502.42C598.884 502.498 598.82 502.561 598.742 502.599C598.663 502.637 598.574 502.646 598.489 502.626V502.626Z" fill="white"/>
<path d="M637.663 502.853C637.003 504.35 635.368 505.137 633.852 505.748C632.335 506.358 630.681 507.018 629.853 508.436C628.199 511.292 630.917 515.33 629.144 518.097C628.727 518.654 628.201 519.121 627.599 519.47C626.996 519.818 626.33 520.041 625.639 520.126C624.506 520.332 623.354 520.332 622.212 520.431C621.665 520.424 621.118 520.381 620.577 520.303C618.986 519.948 617.322 520.124 615.84 520.805C613.565 522.085 612.886 524.951 611.488 527.167C610.633 528.471 609.507 529.576 608.187 530.405C606.866 531.235 605.382 531.769 603.836 531.972C602.851 532.1 600.882 532.287 599.897 531.706C599.82 531.669 599.747 531.622 599.68 531.569V531.569C599.532 531.411 599.355 531.204 599.276 531.096C599.271 531.073 599.271 531.05 599.276 531.027C598.873 529.54 599.532 528.004 599.562 526.467V526.192C599.493 524.409 599.444 522.637 599.404 520.864C599.319 517.582 599.286 514.299 599.306 511.016C599.306 508.889 599.07 506.565 599.976 504.566C600.96 502.36 603.442 502.311 604.378 500.154C604.752 499.288 604.949 498.372 605.313 497.496C605.876 496.221 606.778 495.126 607.921 494.329C609.063 493.532 610.403 493.064 611.793 492.975C616.116 492.759 619.986 496.255 624.309 495.93C625.422 495.841 626.515 495.497 627.618 495.3C631.114 494.64 635.161 495.634 637.131 498.599C637.563 499.209 637.838 499.917 637.931 500.659C638.023 501.401 637.931 502.155 637.663 502.853V502.853Z" fill="#BA68C8"/>
<path d="M598.843 524.202C598.75 524.175 598.671 524.112 598.623 524.028C598.576 523.943 598.563 523.843 598.587 523.749C604.555 501.356 628.13 498.145 633.674 498.52C633.723 498.522 633.771 498.534 633.815 498.556C633.859 498.577 633.898 498.607 633.93 498.644C633.962 498.68 633.987 498.723 634.002 498.769C634.017 498.816 634.023 498.865 634.019 498.913C634.009 499.009 633.962 499.097 633.889 499.16C633.816 499.222 633.721 499.254 633.625 499.248C628.219 498.864 605.136 502.025 599.296 523.946C599.268 524.039 599.206 524.118 599.121 524.166C599.037 524.214 598.937 524.227 598.843 524.202V524.202Z" fill="white"/>
<path d="M625.067 512.858C624.993 512.848 624.924 512.813 624.87 512.76C622.691 510.871 620.121 509.486 617.345 508.705C614.568 507.923 611.654 507.765 608.809 508.239C608.713 508.248 608.617 508.221 608.541 508.163C608.464 508.104 608.412 508.019 608.395 507.924C608.381 507.828 608.405 507.73 608.462 507.651C608.519 507.571 608.605 507.518 608.701 507.501C611.668 507.007 614.707 507.176 617.602 507.995C620.496 508.813 623.173 510.262 625.442 512.238C625.476 512.272 625.504 512.312 625.523 512.357C625.542 512.402 625.552 512.45 625.552 512.499C625.552 512.547 625.542 512.595 625.523 512.64C625.504 512.685 625.476 512.726 625.442 512.76C625.397 512.813 625.337 512.851 625.27 512.868C625.203 512.886 625.132 512.882 625.067 512.858Z" fill="white"/>
<path d="M542.14 235.153L545.272 236.355V229.461C545.272 223.986 549.634 222.676 554.371 225.414C559.118 228.152 562.958 234.799 562.958 240.274V241.259C563.618 241.057 564.316 241.007 564.998 241.113C565.68 241.219 566.329 241.477 566.897 241.87C568.696 243.042 570.193 244.623 571.265 246.483C572.338 248.343 572.957 250.43 573.072 252.574V253.027L577.444 255.548C578.627 256.32 579.612 257.36 580.318 258.583C581.025 259.806 581.433 261.179 581.511 262.589C581.511 265.189 579.689 266.243 577.444 264.943L542.14 244.548C540.956 243.778 539.972 242.738 539.267 241.514C538.561 240.291 538.156 238.917 538.083 237.507C538.083 234.917 539.885 233.863 542.14 235.153Z" fill="#E6E6E6"/>
<path d="M584.081 229.698L589.764 232.977C589.732 232.729 589.716 232.479 589.714 232.229V230.584C589.714 227.63 591.763 226.468 594.303 227.935C595.395 228.604 596.329 229.501 597.041 230.565C597.455 226.882 600.35 225.513 603.856 227.532C605.859 228.835 607.527 230.592 608.725 232.661C609.922 234.729 610.616 237.051 610.749 239.437V241.899C610.774 242.883 610.576 243.86 610.168 244.755L614.895 247.473C615.631 247.962 616.243 248.616 616.681 249.384C617.119 250.152 617.371 251.012 617.416 251.895C617.416 253.52 616.273 254.179 614.865 253.372L584.081 235.646C583.337 235.161 582.718 234.507 582.274 233.736C581.831 232.966 581.576 232.102 581.531 231.215C581.531 229.55 582.673 228.891 584.081 229.698Z" fill="#E6E6E6"/>
<path d="M562.082 379.157C557.946 386.149 553.967 392.225 551.171 395.14C545.863 397.601 533.396 401.403 528.521 402.033C527.665 402.142 526.798 401.939 526.079 401.462C524.158 400.201 522.671 399.994 520.653 399.295C519.067 398.754 518.398 397.995 518.102 398.311C517.797 398.668 517.644 399.131 517.675 399.6C517.706 400.069 517.92 400.508 518.27 400.822C519.027 401.541 519.867 402.169 520.771 402.693C518.609 403.229 516.353 403.27 514.173 402.811C509.948 401.698 507.959 403.727 510.815 408.316C511.8 409.95 515.857 412.58 524.011 411.871C526.92 411.714 529.817 411.385 532.687 410.886C540.506 409.212 549.201 407.597 554.548 405.962C556.538 405.18 558.318 403.946 559.748 402.358C568.739 392.106 571.723 384.8 575.662 378.162L575.327 367.33C568.946 367.113 565.538 373.307 562.082 379.157Z" fill="#FFA8A7"/>
<path d="M576.42 367.113C574.57 366.853 572.683 367.104 570.965 367.838C569.247 368.572 567.762 369.762 566.671 371.279C562.298 376.882 554.558 390.334 554.558 390.334C554.558 390.334 557.089 397.08 563.923 398.212L574.904 383.382C574.904 383.382 580.103 373.081 576.42 367.113Z" fill="#455A64"/>
<path d="M600.163 518.314H593.003V531.077H600.163V518.314Z" fill="#FFA8A7"/>
<path d="M575.347 517.635L568.197 517.891L567.833 504.38L575.347 504.124V517.635Z" fill="#FFA8A7"/>
<path d="M601.167 407.834C601.167 414.944 600.123 472.227 600.123 472.227C600.281 474.276 602.093 478.057 601.728 485.926C601.187 496.61 600.468 524.696 600.468 524.696C599.239 525.325 597.883 525.666 596.503 525.693C595.122 525.72 593.754 525.433 592.501 524.853C592.501 524.853 586.691 485.463 585.411 474.916C584.288 465.669 581.413 435.062 581.413 435.062L577.543 471.243C578.363 475.125 578.661 479.099 578.429 483.06C578.094 487.984 575.79 513.469 575.79 513.469C574.553 514.199 573.166 514.638 571.735 514.752C570.303 514.866 568.864 514.653 567.527 514.129C567.527 514.129 563.451 475.723 563.372 471.213C563.273 466.092 565.755 407.774 565.755 407.774L601.167 407.834Z" fill="#37474F"/>
<path d="M593.003 527.394V526.331C592.314 526.636 590.729 532.958 587.883 535.656C585.628 537.803 582.555 540.275 581.767 542.668C580.979 545.061 586.051 546.528 588.168 546.144C590.61 545.691 594.865 543.889 595.928 542.205C596.992 540.521 597.494 538.079 598.361 536.858C599.227 535.637 601.226 534.278 601.689 532.86C601.834 531.533 601.696 530.19 601.285 528.921C600.951 527.601 600.596 526.153 600.163 526.281V527.089C599.153 527.917 597.884 528.364 596.578 528.349C595.534 528.438 592.994 528.221 593.003 527.394Z" fill="#263238"/>
<path d="M568.118 515.587C567.744 515.587 567.439 516.148 566.622 517.074C565.406 518.352 563.985 519.417 562.417 520.225C559.738 521.623 554.539 523.77 552.165 524.883C550.688 525.572 550.757 527.424 552.283 528.477C553.81 529.531 557.483 530.289 561.895 529.265C564.298 528.704 567.429 526.39 569.418 526.518C571.408 526.646 575.1 526.606 576.568 525.533C578.035 524.459 577.444 522.234 577.031 520.314C576.578 518.206 576.046 514.927 575.347 515.075V515.813C574.49 517.172 570.049 517.724 568.158 516.729L568.118 515.587Z" fill="#263238"/>
<path d="M581.413 435.062C577.689 433.843 574.284 431.808 571.447 429.104C571.447 429.104 573.416 432.856 579.089 436.352L577.868 468.663L581.413 435.062Z" fill="#263238"/>
<path d="M597.169 368.157C597.169 368.157 603.078 369.516 602.654 380.191L601.423 397.178V422.683C596.165 428.651 572.865 428.218 564.839 422.211C564.839 422.211 565.745 392.028 566.287 380.407C566.671 372.155 568.572 367.999 576.686 367.093L586.662 367.527L597.169 368.157Z" fill="#BA68C8"/>
<path d="M589.645 345.98C589.679 347.409 589.43 348.831 588.912 350.163C588.394 351.496 587.617 352.712 586.627 353.743C585.636 354.774 584.452 355.598 583.141 356.169C581.83 356.74 580.42 357.046 578.99 357.069C573.082 357.069 569.615 351.968 568.335 345.98C565.972 335.02 573.101 334.882 578.99 334.882C581.875 334.941 584.617 336.144 586.616 338.225C588.614 340.306 589.703 343.096 589.645 345.98V345.98Z" fill="#263238"/>
<path d="M595.081 350.461C595.081 350.461 593.447 358.457 592.787 359.777C592.372 360.571 591.666 361.174 590.817 361.461L590.935 355.838L595.081 350.461Z" fill="#263238"/>
<path d="M593.023 339.008C593.023 339.008 594.195 338.713 595.446 340.663C596.509 342.327 596.755 346.069 595.081 350.51L591.999 350.884L593.023 339.008Z" fill="#263238"/>
<path d="M594.156 340.633L597.937 340.702C597.963 340.458 597.938 340.21 597.864 339.976C597.79 339.742 597.668 339.525 597.506 339.34C597.344 339.155 597.146 339.006 596.924 338.901C596.701 338.797 596.46 338.739 596.214 338.732C595.697 338.74 595.201 338.938 594.821 339.289C594.441 339.64 594.204 340.118 594.156 340.633Z" fill="#263238"/>
<path d="M594.619 339.737L597.415 337.048C597.254 336.858 597.055 336.704 596.831 336.594C596.608 336.485 596.363 336.423 596.115 336.413C595.866 336.403 595.617 336.444 595.385 336.535C595.153 336.626 594.942 336.764 594.766 336.94C594.395 337.302 594.174 337.791 594.147 338.309C594.12 338.827 594.288 339.337 594.619 339.737V339.737Z" fill="#263238"/>
<path d="M591.073 350.835C591.694 351.22 592.57 349.989 593.338 349.152C594.106 348.314 596.49 347.546 597.73 350.264C598.971 352.982 596.854 355.671 595.081 356.557C591.901 358.133 590.896 355.838 590.896 355.838L590.63 368.502C586.159 375.396 576.016 375.179 579.67 368.167V364.317C578.167 364.567 576.641 364.646 575.12 364.553C572.638 364.159 571.083 362.121 570.324 359.324C569.123 354.834 568.66 351.21 569.684 342.376C570.807 332.706 581.62 332.598 587.41 336.468C593.2 340.338 591.073 350.835 591.073 350.835Z" fill="#FFA8A7"/>
<path d="M577.602 340.869C580.182 340.613 582.732 340.081 585.322 339.884C585.881 339.817 586.447 339.843 586.996 339.963C588.966 340.505 588.73 342.809 589.045 344.414C589.586 347.191 590.03 351.889 591.073 351.908C591.389 351.908 592.57 349.87 593.338 349.141C593.761 348.513 593.999 347.78 594.028 347.024C594.225 345.882 594.323 344.71 594.412 343.548C594.491 342.563 594.589 341.578 594.589 340.593C594.634 339.481 594.545 338.366 594.323 337.275C594.076 336.346 593.602 335.493 592.944 334.793L592.748 334.576C591.449 333.219 589.874 332.158 588.129 331.465C585.618 330.524 582.985 329.95 580.31 329.761C577.639 329.572 574.98 329.243 572.343 328.776C572.192 328.732 572.031 328.732 571.88 328.776C571.773 328.835 571.683 328.921 571.618 329.024C571.552 329.127 571.514 329.245 571.506 329.367C571.398 329.979 571.466 330.609 571.701 331.184C571.936 331.759 572.33 332.256 572.836 332.617C571.053 332.755 569.005 331.829 567.291 331.356C567.153 331.298 567.004 331.267 566.853 331.267C566.702 331.267 566.553 331.298 566.415 331.356C566.243 331.476 566.121 331.655 566.07 331.859C565.945 332.321 565.929 332.806 566.021 333.277C566.178 334.702 566.708 336.061 567.557 337.216C568.884 338.944 570.76 340.169 572.875 340.692C574.432 340.992 576.026 341.052 577.602 340.869V340.869Z" fill="#263238"/>
<path d="M579.68 364.317C579.68 364.317 585.214 363.154 587.144 362.081C588.294 361.452 589.227 360.491 589.823 359.324C589.532 360.497 589.013 361.601 588.296 362.573C586.888 364.464 579.68 365.843 579.68 365.843V364.317Z" fill="#F28F8F"/>
<path d="M581.009 349.387C580.998 349.691 581.108 349.987 581.315 350.21C581.522 350.434 581.808 350.566 582.112 350.579C582.353 350.599 582.595 350.545 582.805 350.425C583.015 350.306 583.185 350.125 583.291 349.907C583.397 349.69 583.434 349.445 583.399 349.206C583.363 348.966 583.257 348.743 583.092 348.565C582.928 348.388 582.713 348.264 582.477 348.21C582.241 348.156 581.995 348.175 581.769 348.264C581.544 348.353 581.351 348.508 581.216 348.708C581.08 348.909 581.008 349.145 581.009 349.387V349.387Z" fill="#263238"/>
<path d="M582.782 344.611L585.155 345.98C585.328 345.643 585.367 345.252 585.265 344.887C585.162 344.522 584.926 344.209 584.603 344.011C584.446 343.922 584.272 343.868 584.092 343.85C583.913 343.833 583.732 343.853 583.56 343.91C583.389 343.966 583.231 344.058 583.097 344.178C582.963 344.299 582.856 344.447 582.782 344.611V344.611Z" fill="#263238"/>
<path d="M580.172 357.374L577.641 358.359C577.692 358.532 577.778 358.694 577.894 358.833C578.01 358.972 578.153 359.085 578.315 359.166C578.476 359.248 578.653 359.295 578.833 359.305C579.014 359.315 579.195 359.288 579.364 359.225C579.709 359.077 579.984 358.803 580.134 358.459C580.284 358.115 580.298 357.727 580.172 357.374V357.374Z" fill="#F28F8F"/>
<path d="M570.826 345.626L572.993 343.893C572.896 343.741 572.768 343.612 572.618 343.513C572.467 343.415 572.298 343.349 572.121 343.32C571.943 343.291 571.762 343.3 571.588 343.346C571.414 343.392 571.252 343.474 571.112 343.587C570.823 343.833 570.633 344.176 570.581 344.552C570.528 344.928 570.616 345.31 570.826 345.626V345.626Z" fill="#263238"/>
<path d="M571.782 349.062C571.799 349.278 571.879 349.484 572.011 349.655C572.143 349.825 572.322 349.954 572.526 350.025C572.731 350.096 572.951 350.106 573.161 350.053C573.371 350.001 573.56 349.888 573.707 349.73C573.854 349.571 573.952 349.373 573.988 349.16C574.024 348.947 573.998 348.728 573.911 348.53C573.825 348.332 573.683 348.163 573.503 348.044C573.322 347.925 573.111 347.862 572.895 347.861C572.742 347.866 572.593 347.901 572.454 347.964C572.316 348.028 572.191 348.118 572.088 348.229C571.984 348.341 571.904 348.472 571.851 348.615C571.799 348.758 571.775 348.91 571.782 349.062V349.062Z" fill="#263238"/>
<path d="M577.72 348.137L577.592 355.138L573.613 354.232L577.72 348.137Z" fill="#F28F8F"/>
<path d="M483.241 406.78L489.416 403.215L491.858 400.25L485.693 403.815L483.241 406.78Z" fill="#BA68C8"/>
<path opacity="0.4" d="M483.241 406.78L489.416 403.215L491.858 400.25L485.693 403.815L483.241 406.78Z" fill="black"/>
<path d="M500.032 416.47L506.206 412.905L511.356 408.345L505.192 411.9L500.032 416.47Z" fill="#BA68C8"/>
<path opacity="0.4" d="M500.032 416.47L506.206 412.905L511.356 408.345L505.192 411.9L500.032 416.47Z" fill="black"/>
<path d="M552.48 428.77C553.94 430.727 554.824 433.053 555.031 435.486C553.577 433.525 552.695 431.201 552.48 428.77V428.77ZM566.828 428.957C564.751 414.826 557.158 400.852 548.118 395.623C543.775 393.111 539.757 393.023 536.537 394.904L530.727 398.252L530.402 398.449C530.143 398.591 529.893 398.749 529.653 398.922C529.176 399.25 528.728 399.619 528.314 400.024L528.117 400.212C527.94 400.389 527.753 400.596 527.585 400.793C527.418 400.99 527.162 401.295 526.965 401.561C526.547 402.111 526.169 402.69 525.833 403.294C525.655 403.599 525.488 403.924 525.33 404.279L474.585 374.992L468.421 378.547V382.486L468.943 382.781L469.435 383.067V383.855L468.45 384.436V386.72L475.905 402.477L483.271 406.741L485.723 403.786L492.222 407.676L495.955 414.067L500.071 416.441L505.221 411.871L511.544 415.525L513.671 424.299L524.296 430.444C524.822 432.677 525.479 434.877 526.266 437.032C526.335 437.249 526.423 437.475 526.512 437.721C530.038 446.978 535.641 454.906 541.963 458.559C542.721 459.008 543.515 459.394 544.336 459.711C544.771 459.884 545.215 460.032 545.666 460.154C546.06 460.259 546.454 460.348 546.848 460.42C548.091 460.647 549.366 460.647 550.609 460.42L551.121 460.292C551.366 460.243 551.607 460.174 551.84 460.085L552.392 459.869C552.587 459.798 552.775 459.709 552.953 459.603C553.135 459.524 553.313 459.435 553.485 459.337L553.741 459.179C553.787 459.164 553.831 459.141 553.869 459.111C555.277 458.303 558.744 456.294 559.689 455.762C564.376 453.044 567.409 446.171 567.409 436.451C567.402 433.942 567.207 431.437 566.828 428.957V428.957Z" fill="#BA68C8"/>
<path d="M550.678 440.695C548.236 439.287 546.266 435.111 546.266 431.369C546.266 427.627 548.236 425.727 550.678 427.125C553.12 428.523 555.08 432.709 555.08 436.461C555.08 440.213 553.111 442.103 550.678 440.695ZM560.654 432.512C558.586 418.39 550.993 404.406 541.943 399.187C537.748 396.765 533.868 396.587 530.717 398.252L530.392 398.449C530.133 398.591 529.883 398.749 529.644 398.921C529.166 399.25 528.718 399.619 528.304 400.024L528.107 400.211C527.93 400.389 527.743 400.595 527.576 400.792C527.408 400.989 527.152 401.295 526.955 401.56C526.537 402.111 526.159 402.69 525.823 403.294C525.645 403.599 525.478 403.924 525.32 404.278C524.402 406.182 523.74 408.198 523.351 410.276L468.411 378.546V382.485L468.933 382.781L469.425 383.066V383.854L468.44 384.435V386.72L475.895 402.476L483.261 406.74L485.713 403.786L492.213 407.676L495.945 414.067L500.061 416.44L505.212 411.871L511.534 415.524L513.661 424.299L524.296 430.444C524.821 432.677 525.479 434.877 526.266 437.032C526.335 437.248 526.423 437.475 526.512 437.721C530.038 446.978 535.641 454.905 541.963 458.559C542.721 459.008 543.515 459.393 544.336 459.711C544.771 459.884 545.215 460.032 545.666 460.154C546.06 460.259 546.454 460.348 546.847 460.42C548.091 460.647 549.366 460.647 550.609 460.42L551.121 460.292C551.366 460.243 551.607 460.173 551.84 460.085L552.392 459.868C552.587 459.798 552.775 459.709 552.953 459.603C553.135 459.524 553.313 459.435 553.485 459.337L553.741 459.179C553.787 459.164 553.831 459.141 553.869 459.11C558.359 456.274 561.245 449.499 561.245 440.016C561.228 437.503 561.031 434.996 560.654 432.512V432.512Z" fill="#BA68C8"/>
<path opacity="0.4" d="M555.08 436.451C555.08 440.203 553.111 442.103 550.678 440.695C548.246 439.287 546.266 435.121 546.266 431.369C546.266 427.617 548.236 425.717 550.678 427.125C551.382 427.553 551.994 428.115 552.48 428.779C552.692 431.211 553.575 433.536 555.031 435.495C555.067 435.812 555.083 436.131 555.08 436.451V436.451Z" fill="black"/>
<path opacity="0.4" d="M567.39 436.441C567.39 446.16 564.357 453.034 559.669 455.752C558.684 456.284 555.257 458.293 553.849 459.1C558.34 456.264 561.225 449.489 561.225 440.005C561.215 437.497 561.024 434.992 560.654 432.511C558.586 418.39 550.993 404.406 541.943 399.187C537.748 396.764 533.868 396.587 530.717 398.251L536.527 394.903C539.747 393.022 543.765 393.111 548.108 395.622C557.158 400.851 564.75 414.825 566.818 428.956C567.194 431.434 567.385 433.935 567.39 436.441V436.441Z" fill="white"/>
<path d="M561.225 439.986C561.225 449.469 558.34 456.244 553.849 459.08C555.257 458.273 558.724 456.264 559.669 455.732C564.357 453.014 567.39 446.14 567.39 436.421C567.39 436.066 567.39 435.702 567.39 435.337L561.225 438.902C561.215 439.286 561.225 439.641 561.225 439.986Z" fill="#BA68C8"/>
<path opacity="0.1" d="M561.225 439.986C561.225 449.469 558.34 456.244 553.849 459.08C555.257 458.273 558.724 456.264 559.669 455.732C564.357 453.014 567.39 446.14 567.39 436.421C567.39 436.066 567.39 435.702 567.39 435.337L561.225 438.902C561.215 439.286 561.225 439.641 561.225 439.986Z" fill="black"/>
<path opacity="0.15" d="M523.587 414.303V416.303L468.421 384.455L469.435 383.864V383.037L523.587 414.303Z" fill="black"/>
<path opacity="0.15" d="M523.587 415.13V416.302L468.421 384.455L469.435 383.864V383.854L523.587 415.13Z" fill="black"/>
<path opacity="0.15" d="M547.576 455.742C545.485 455.688 543.446 455.079 541.668 453.979C532.677 448.79 525.36 433.348 525.36 419.562C525.36 411.516 527.792 405.509 532.036 403.057C534.991 401.344 538.487 401.56 542.16 403.677C551.141 408.867 558.458 424.358 558.458 438.144C558.458 446.18 556.025 452.197 551.781 454.639C550.501 455.37 549.05 455.751 547.576 455.742ZM536.301 402.909C534.988 402.902 533.697 403.242 532.558 403.894C528.688 406.13 526.374 411.989 526.374 419.552C526.374 433.024 533.464 448.11 542.189 453.113C545.528 455.082 548.689 455.26 551.318 453.743C555.188 451.508 557.503 445.658 557.503 438.095C557.503 424.614 550.412 409.537 541.697 404.524C540.068 403.533 538.207 402.99 536.301 402.949V402.909Z" fill="black"/>
<path opacity="0.4" d="M525.281 404.259C524.363 406.162 523.701 408.179 523.312 410.256L468.371 378.527L474.536 374.972L525.281 404.259Z" fill="white"/>
<path d="M596.687 407.341C599.562 401.895 602.851 389.665 604.486 383.49C606.81 374.726 603.048 369.211 598.774 368.984C596.106 369.398 587.312 401.373 587.312 401.373C586.327 402.151 572.964 408.936 568.67 410.64C567.902 410.93 567.055 410.93 566.287 410.64C564.229 409.892 562.82 410.029 560.802 409.833C559.216 409.675 558.419 409.114 558.212 409.448C558.024 409.864 558 410.335 558.144 410.768C558.288 411.2 558.59 411.563 558.99 411.782C559.859 412.289 560.784 412.692 561.747 412.984C560.021 413.507 558.222 413.75 556.419 413.703C552.283 413.614 550.796 415.406 554.007 419.611C555.976 422.231 559.236 423.058 566.513 420.547C568.601 419.818 571.437 418.41 574.086 417.455C579.542 415.485 580.98 415.249 585.135 413.841C591.192 411.792 595.406 409.764 596.687 407.341Z" fill="#FFA8A7"/>
<path d="M597.169 368.157C599.68 368.502 602.093 369.063 603.58 371.112C605.067 373.16 606.258 376.035 604.801 383.864C603.685 389.37 602.191 394.793 600.33 400.093C600.33 400.093 594.481 402.595 588.267 396.253L592.541 379.728C592.541 379.728 593.23 368.984 597.169 368.157Z" fill="#455A64"/>
</svg>
